<svg width="22" height="10" viewBox="0 0 22 10" fill="none" xmlns="http://www.w3.org/2000/svg">
<path d="M0.0568182 9V0.272727H1.11364V4.15909H5.76705V0.272727H6.82386V9H5.76705V5.09659H1.11364V9H0.0568182ZM12.9283 6.32386V2.45455H13.9339V9H12.9283V7.89205H12.8601C12.7067 8.22443 12.468 8.5071 12.1442 8.74006C11.8203 8.97017 11.4112 9.08523 10.9169 9.08523C10.5078 9.08523 10.1442 8.99574 9.82599 8.81676C9.50781 8.63494 9.25781 8.36222 9.07599 7.99858C8.89418 7.6321 8.80327 7.17045 8.80327 6.61364V2.45455H9.80895V6.54545C9.80895 7.02273 9.94247 7.40341 10.2095 7.6875C10.4794 7.97159 10.8232 8.11364 11.2408 8.11364C11.4908 8.11364 11.745 8.04972 12.0036 7.92188C12.2649 7.79403 12.4837 7.59801 12.6598 7.33381C12.8388 7.0696 12.9283 6.73295 12.9283 6.32386ZM15.9123 9V0.272727H16.918V3.49432H17.0032C17.0771 3.38068 17.1793 3.2358 17.31 3.05966C17.4435 2.88068 17.6339 2.72159 17.881 2.58239C18.131 2.44034 18.4691 2.36932 18.8952 2.36932C19.4464 2.36932 19.9322 2.5071 20.3526 2.78267C20.7731 3.05824 21.1012 3.44886 21.337 3.95455C21.5728 4.46023 21.6907 5.05682 21.6907 5.74432C21.6907 6.4375 21.5728 7.03835 21.337 7.54688C21.1012 8.05256 20.7745 8.4446 20.3569 8.72301C19.9393 8.99858 19.4577 9.13636 18.9123 9.13636C18.4918 9.13636 18.1552 9.06676 17.9023 8.92756C17.6495 8.78551 17.4549 8.625 17.3185 8.44602C17.1822 8.2642 17.0771 8.11364 17.0032 7.99432H16.8839V9H15.9123ZM16.9009 5.72727C16.9009 6.22159 16.9734 6.65767 17.1183 7.03551C17.2631 7.41051 17.4748 7.70455 17.7532 7.91761C18.0316 8.12784 18.3725 8.23295 18.7759 8.23295C19.1964 8.23295 19.5472 8.12216 19.8285 7.90057C20.1126 7.67614 20.3256 7.375 20.4677 6.99716C20.6126 6.61648 20.685 6.19318 20.685 5.72727C20.685 5.26705 20.614 4.85227 20.4719 4.48295C20.3327 4.1108 20.1211 3.81676 19.837 3.60085C19.5558 3.3821 19.2021 3.27273 18.7759 3.27273C18.3668 3.27273 18.0231 3.37642 17.7447 3.58381C17.4663 3.78835 17.256 4.07528 17.114 4.4446C16.9719 4.81108 16.9009 5.23864 16.9009 5.72727Z" fill="#FF577F"/>
</svg>
